<?xml version="1.0" encoding="UTF-8"?>
<svg id="Layer_1" xmlns="http://www.w3.org/2000/svg" viewBox="0 0 633.99 723.25">
  <path d="M583.49,135.52c21.59,33.45,33.05,72.42,33,112.23,0,113.77-91.33,206-204,206s-204-92.23-204-206S299.82,41.75,412.49,41.75c2.37,0,4.71.1,7.06.18-9.31-1.1-18.68-1.66-28.06-1.68-133.93,0-242.5,109.47-242.5,244.5s108.57,244.5,242.5,244.5,242.5-109.47,242.5-244.5c.08-53.95-17.67-106.42-50.5-149.23Z"/>
  <circle cx="500.83" cy="91.13" r="42.38"/>
  <path d="M272.37,0C120.14,4.47,0,112,0,250.75c0,45.71,17.44,84.53,40.62,121.69l54.24-54.34c-6.95-8.54-12.81-17.9-17.47-27.87C30.49,173.17,151.24,34.17,272.37,0Z"/>
  <path d="M145.24,683.5l18.94-6.75c5.44-1.95,10.03-5.72,13-10.68l253.39-421.7-207,433.46c-4.73,9.89-4.31,21.47,1.12,31l8.22,14.42c-28.06-15.67-57.39-28.97-87.67-39.75Z"/>
  <path d="M107.74,444.45c140.87-41.48,220.75-132.49,278.25-240.2-72.31,199.17-188.68,276.69-314.78,308.14-7.58,1.84-14.77,4.99-21.27,9.3l-18.71,12.55c5.52-34.84,5.37-68.35-2.25-100.12l13.5,8.49c7.12,4.49,15.48,6.59,23.88,6l30.89-2.24c3.56-.26,7.07-.91,10.49-1.92Z"/>
</svg>