<?xml version="1.0" encoding="UTF-8"?>
<svg id="Layer_1" xmlns="http://www.w3.org/2000/svg" viewBox="0 0 491.97 594.67">
  <path d="M306.76,0l-98.17,22.34,25,12.51c3.36,1.69,5.89,4.68,7,8.28l75.23,243.78L306.76,0Z"/>
  <path d="M438.29,150.73c.23,21.33-16.87,38.82-38.21,39.05s-38.82-16.87-39.05-38.21c-.23-21.33,16.87-38.82,38.21-39.05.14,0,.28,0,.42,0,21.22-.12,38.51,16.99,38.63,38.21h0Z"/>
  <path d="M279.8,300.95L182.8,55.05c-1.44-3.66-2.03-7.59-1.73-11.51l1.59-20.72-101.82,55.41,33.54,1.5c1.95.09,3.76,1.05,4.92,2.63l160.5,218.59Z"/>
  <path d="M282.22,526.22c-115.67-3.05-207.37-83.86-204.82-180.5,2.49-94.52,94.24-169.12,206.49-169.49v-72.14c-11.99-1.76-24.1-2.64-36.22-2.65C110.9,101.42,0,211.84,0,348.09s110.9,246.58,247.66,246.58c123,0,225-89.34,244.31-206.41-19.97,81.08-106.97,140.67-209.75,137.96Z"/>
</svg>