<?xml version="1.0" encoding="UTF-8"?>
<svg id="Layer_1" xmlns="http://www.w3.org/2000/svg" viewBox="0 0 485.8 853.5">
  <circle cx="172.02" cy="445.88" r="42.38"/>
  <path d="M241.3,191.25c-21.14,0-42.19,2.73-62.62,8.13v68.85c8-.78,16.12-1.23,24.38-1.23,114.53,0,207.38,77.4,207.38,172.88s-92.86,172.87-207.39,172.87c-100,0-183.54-59.07-203.05-137.65,18.83,116.32,119.67,205.15,241.3,205.15,135,0,244.5-109.47,244.5-244.5s-109.46-244.5-244.5-244.5Z"/>
  <path d="M123.18,368.25c35-7.48,69.39-10.1,102.75-6l-23.39-24.68c-2.34-2.47-3.75-5.67-4-9.06L174.9,0l-23.4,327.23c-.37,5.21-2.39,10.17-5.75,14.17l-22.57,26.85Z"/>
  <path d="M124.68,533.25c29.42,5.22,57.69,5,84.75-.75l-11.09,17.43c-3.05,4.8-4.77,10.32-5,16l-11.66,287.57-31.33-284.9c-.6-5.42-2.9-10.52-6.59-14.54l-19.08-20.81Z"/>
</svg>
