<?xml version="1.0" encoding="UTF-8"?>
<svg id="Layer_1" xmlns="http://www.w3.org/2000/svg" viewBox="0 0 539.68 673">
  <path d="M267.12,13.29c75.81,18.27,132.8,96.48,132.8,190.21,0,107.28-74.66,194.25-166.75,194.25s-166.75-87-166.75-194.25c-.09-29.42,5.73-58.56,17.1-85.7l-28.62-26.49C19.41,132.87-.06,185.74,0,240.39,0,367.47,103,470.5,230.11,470.5s230.11-103,230.11-230.11c.01-114.47-83.61-209.39-193.1-227.1Z"/>
  <polygon points="527.68 673 58.68 86 23.67 138.75 527.68 673"/>
  <path d="M539.68,565.75l-195-283.7c-1.83-2.66-2.1-6.09-.72-9l7.33-15.46-66.37,52.48,13.94-3.56c3.61-.93,7.43.23,9.92,3l230.9,256.24Z"/>
  <circle cx="153.93" cy="38.75" r="38.75"/>
</svg>
