<?xml version="1.0" encoding="UTF-8"?>
<svg id="Layer_1" xmlns="http://www.w3.org/2000/svg" viewBox="0 0 516.75 670.52">
  <path d="M262.91,583.36l32-443.3c.37-5.13,1.63-10.15,3.73-14.84l7.4-16.55c-30.68,9.42-73,10.74-118.74,9.75l35.51,18c7.42,3.7,12.31,3.7,12.84,12l27.26,434.94Z"/>
  <path d="M295.11,39.39c0,21.75-17.64,39.39-39.39,39.39s-39.39-17.64-39.39-39.39S233.97,0,255.72,0c21.75,0,39.39,17.64,39.39,39.39h0Z"/>
  <path d="M258.37,173.16C115.67,173.16,0,285.16,0,423.29c0,125.16,95,228.85,218.95,247.23-81.08-21.08-141.7-105.1-141.7-205.6,0-116.39,81.26-210.75,181.5-210.75s181.5,94.36,181.5,210.75c0,99.94-59.93,183.58-140.33,205.24,122.93-19.25,216.83-122.43,216.83-246.87,0-138.14-115.68-250.13-258.38-250.13Z"/>
  <path d="M258.37,298.41c-81,0-146.62,64.14-146.62,143.25,0,63.35,42.11,117.06,100.46,136-32.9-17.83-55.46-53.83-55.46-95.5,0-59.23,45.5-107.25,101.62-107.25s101.63,48,101.63,107.25c0,41.67-22.56,77.71-55.46,95.46,58.35-18.9,100.46-72.61,100.46-136,0-79.07-65.63-143.21-146.63-143.21Z"/>
</svg>
