<?xml version="1.0" encoding="UTF-8"?>
<svg id="Layer_1" xmlns="http://www.w3.org/2000/svg" viewBox="0 0 767 751.25">
  <path d="M673.23,253.11c7.47,21.57,11.28,44.24,11.27,67.07,0,114.08-93.12,206.56-208,206.56s-208-92.48-208-206.56,93.12-206.56,208-206.56c24.56-.02,48.94,4.29,72,12.73-31.45-14.1-65.53-21.38-100-21.36-134.76,0-244,108.74-244,242.87s109.24,242.89,244,242.89,244-108.74,244-242.88c.04-32.56-6.51-64.8-19.27-94.76Z"/>
  <circle cx="450.25" cy="330.5" r="40.25"/>
  <path d="M505.5,216.25c23.24,18.26,44.37,39.06,63,62l-.16-20.1c-.05-6.49,2.53-12.73,7.16-17.28l191.5-189.62-225.38,160.49c-3.66,2.6-8.02,4.04-12.51,4.11l-23.61.4Z"/>
  <path d="M718.5,635.22l-93.74-190.24c-2.35-4.75-3.14-10.12-2.26-15.34l3-17.39c-19.77,18.94-40.81,35.5-64,48l17.75,4.1c6.15,1.42,11.62,4.93,15.47,9.94l123.78,160.93Z"/>
  <path d="M300,751.25l71.81-274.54c1.08-4.11.32-8.49-2.09-12l-13.72-20c28,17,54.7,29.5,79.5,35.5l-16.25,7.65c-5.95,2.8-10.67,7.7-13.24,13.76l-106.01,249.63Z"/>
  <path d="M0,337.75l284.91,3.92c3.96.06,7.82-1.2,11-3.56l20.59-15.36c-4.92,24.24-4.42,49.49,0,75.5l-19.89-14.32c-3.36-2.42-7.25-3.99-11.34-4.59L0,337.75Z"/>
  <path d="M283.5,0l109.48,163c1.63,2.43,2.36,5.34,2.08,8.25l-2.56,26.5c18.09-18.75,41-34.53,67.75-48l-28.68-5.1c-3.3-.59-6.34-2.18-8.71-4.56L283.5,0Z"/>
</svg>