<?xml version="1.0" encoding="UTF-8"?>
<svg id="Layer_1" xmlns="http://www.w3.org/2000/svg" viewBox="0 0 776.5 701.25">
  <path d="M464.38,51.02c58.77,36.82,94.36,101.38,94.12,170.73,0,110.46-88,200-196.5,200s-196.5-89.54-196.5-200c-.22-67.46,33.47-130.52,89.67-167.83-79.51,40.24-134.17,123.65-134.17,220.07,0,135.72,108.24,245.75,241.75,245.75s241.75-110,241.75-245.75c0-98.8-57.4-183.94-140.12-222.97Z"/>
  <circle cx="362" cy="42.75" r="42.75"/>
  <path d="M0,170.75c3.83,32.56,3.83,68.69,1.5,107,11.1-10.96,20.39-23.62,27.5-37.5l747.5-41.5-750.5-4c-4.32-8.18-14.54-16.12-26-24Z"/>
  <path d="M315,333.25l25.5,16,23,352,14.5-354.5,27.31-13.75c-30.07,2.04-60.23,2.12-90.31.25Z"/>
</svg>
