<?xml version="1.0" encoding="UTF-8"?>
<svg id="Layer_1" xmlns="http://www.w3.org/2000/svg" viewBox="0 0 632.75 649.5">
  <circle cx="521.84" cy="103.38" r="42.38"/>
  <path d="M594.9,149.08c13.59,27.47,20.64,57.71,20.6,88.36,0,109.87-88.65,198.94-198,198.94s-198-89.07-198-198.94S308.15,38.5,417.5,38.5c2.07,0,4.11.09,6.16.16-11.23-1.59-22.56-2.39-33.91-2.41-134.21,0-243,108.79-243,243s108.79,243,243,243,243-108.79,243-243c.05-46.11-13.08-91.28-37.85-130.17Z"/>
  <path d="M0,0l340.65,199.56c7.18,4.21,16.19,3.72,22.87-1.25l43.48-32.31c-29,38.58-52.83,74.42-66.5,105L0,0Z"/>
  <path d="M406.5,321l-64-65L8,649.5l348.49-322.35c7.31-6.76,17.2-9.99,27.09-8.83l22.92,2.68Z"/>
</svg>
