<?xml version="1.0" encoding="UTF-8"?>
<svg id="Layer_1" xmlns="http://www.w3.org/2000/svg" viewBox="0 0 535.6 675.77">
  <path d="M298.12,441.75c-108.52,0-196.5-88.65-196.5-198S189.62,45.75,298.12,45.75c69.28,0,130.14,36.16,165.13,90.74C423.47,55.67,340.31,0,244.12,0,109.29,0,0,109.3,0,244.13s109.3,244.12,244.12,244.12c97.44,0,181.52-57.11,220.68-139.67-34.73,55.94-96.4,93.17-166.68,93.17Z"/>
  <circle cx="493.22" cy="237.38" r="42.38"/>
  <path d="M194.62,255.75c33.69,5.53,64.48,5.35,91.5-2.25l-15,19c-2.96,3.75-4.66,8.33-4.89,13.1l-18.4,390.17-31.5-388.1c-.46-5.6-2.74-10.89-6.51-15.06l-15.2-16.86Z"/>
</svg>
