<?xml version="1.0" encoding="UTF-8"?>
<svg id="Layer_1" xmlns="http://www.w3.org/2000/svg" viewBox="0 0 703.5 701.96">
  <circle cx="388.13" cy="339.75" r="42.75"/>
  <path d="M373.4,133.84c14,4.41,28.76,9.57,41.32,16.53,4.73,2.62,8.47,6.7,10.68,11.63l10.08,22.54c7.95-6.65,17.62-10.92,27.9-12.3l11.09-43.88c-46.49-47.68-110.31-74.5-176.9-74.37-135.76,0-245.81,108.79-245.81,243s110.05,243,245.81,243c123.35,0,225.46-89.82,243.1-206.91-17.88,80.13-104,140.91-206.16,140.91-114.94,0-206.81-76.9-206.81-171.75,0-88.87,82.69-174.94,186.94-174.94,20.13,0,39.42.56,57.32,6l1.44.54Z"/>
  <path d="M3.74,310.6L0,223.5l703.5-4.12L38.83,281.65c-5,.47-13.92,4.75-17.4,8.34l-17.69,20.61Z"/>
  <path d="M301.5,0c-29.54,3.71-62.51,3.29-97.87,0l22.55,15c3.46,2.31,5.69,6.06,6.06,10.2l60.64,676.76-2.23-678.49c-.02-4.55,1.31-8.99,3.81-12.79l7.04-10.68Z"/>
</svg>
