<?xml version="1.0" encoding="UTF-8"?>
<svg id="Layer_1" xmlns="http://www.w3.org/2000/svg" viewBox="0 0 559.13 688.55">
  <path d="M507.64,94.18c21.17,32.73,32.41,70.88,32.36,109.86,0,112-90.83,202.87-202.88,202.87s-202.87-90.82-202.87-202.86S225.08,1.17,337.12,1.17h1.85c-7.83-.76-15.76-1.17-23.79-1.17C180.46,0,71.24,109.21,71.24,243.94s109.23,243.98,243.95,243.98,243.94-109.21,243.94-243.94c.06-54.29-18.06-107.03-51.49-149.8Z"/>
  <circle cx="430.88" cy="40.17" r="40.12"/>
  <path d="M81.75,688.55l247.13-400.06c4.6-7.46,10.74-13.85,18-18.75l10.11-9.07c-28.88-5.62-50.59-15.83-84.75-33.42l11.95,23.23c2.7,5.27,2.78,11.5.21,16.83l-202.65,421.24Z"/>
  <path d="M0,641.67L261.9,190.13c2.61-4.55,6.08-8.56,10.22-11.79,9-6.95,20.8-13.78,28.26-16.69-21.37-.75-82.21-33.27-93-40.87l9.8,24.27c2.77,7.14,2.54,15.09-.64,22.06L0,641.67Z"/>
</svg>
