<?xml version="1.0" encoding="UTF-8"?>
<svg id="Layer_1" xmlns="http://www.w3.org/2000/svg" viewBox="0 0 522.17 777.37">
  <path d="M307.37,91.72l-24,77.19c73.6,26.25,125.19,87.48,125.19,158.84,0,95.27-92,172.5-205.5,172.5-102.71,0-187.81-63.26-203.06-145.89,14,121.07,116.85,215.08,241.68,215.08,134.41,0,243.38-109,243.38-243.37.03-111.66-75.19-205.68-177.69-234.35Z"/>
  <path d="M214.34,373.88c12.57-45,23.34-87.5,28.22-121.88L376.5,29.58c2.29-3.8,2.93-8.37,1.77-12.66l-4.56-16.92,61.13,42.38-11.08,1.48c-3.67.49-6.92,2.6-8.87,5.75l-200.55,324.27Z"/>
  <path d="M447.17,48.38l75,47.62-16.21-.81c-3.71-.19-7.2,1.79-8.95,5.06L134.01,777.37c14.72-40.8,56.2-191.62,70.5-250.38L452.03,77.67c2.24-4.07,2.6-8.91,1-13.27l-5.86-16.02Z"/>
  <circle cx="211.09" cy="97.75" r="41"/>
</svg>
