<?xml version="1.0" encoding="UTF-8"?>
<svg id="Layer_1" xmlns="http://www.w3.org/2000/svg" viewBox="0 0 517.16 534.5">
  <path d="M314,466.5c-114.6,0-207.5-78.24-207.5-174.75,0-55.05,30.26-104.13,77.5-136.16l21.33-69.09h-77.36C63.58,132.98,25.45,207.58,25.5,287c0,136.69,110.81,247.5,247.5,247.5,122.92,0,224.86-89.63,244.16-207.09-19.55,79.41-103.08,139.09-203.16,139.09Z"/>
  <circle cx="386.5" cy="370.5" r="42"/>
  <path d="M319,342.5l-1.87-2.38L83,35.5c3.36-9.7,3.3-21.58,0-35.5L0,79l20,.78c3.55.13,6.91,1.61,9.41,4.13l163.59,164.59c48.55,33.42,95.49,66.28,126,94Z"/>
</svg>
