<?xml version="1.0" encoding="UTF-8"?>
<svg id="Layer_1" xmlns="http://www.w3.org/2000/svg" viewBox="0 0 481.74 522.27">
  <path d="M235.49,522.12c-88.89-5.83-159.5-96.27-159.5-206.94S157.49,107.93,250.62,107.93c.63,0,1.25,0,1.88.06V28.55c-1.6,0-3.18-.12-4.78-.12C114.22,28.43,0,139.02,0,275.43s104.89,243.46,235.5,246.84v-.15Z"/>
  <path d="M299.86,137.43c-100.45,0-181.87,80.59-181.87,180,0,92,69.79,167.87,159.84,178.64-72.54-11.77-121.81-80.12-110.05-152.66,11.77-72.54,80.12-121.81,152.66-110.05,72.54,11.77,121.81,80.12,110.05,152.66-9.4,57.97-55.7,102.92-113.92,110.62,92.61-8.35,165.17-85.38,165.17-179.21,0-99.41-81.43-180-181.88-180Z"/>
  <circle cx="262.79" cy="402.13" r="39.8"/>
  <path d="M372.43,400.47L94.3,28.47c-1.79-2.4-2.82-5.29-2.95-8.28l-1.86-20.19L3.99,79.39l37.68-11.46c10.3-2.15,12-4.22,19.18,3.43l311.58,329.11Z"/>
</svg>