<?xml version="1.0" encoding="UTF-8"?>
<svg id="Layer_1" xmlns="http://www.w3.org/2000/svg" viewBox="0 0 510.64 624.31">
  <path d="M72,181.12L0,270.88l24.56-10.26c5.25-2.2,11.31-.93,15.23,3.2l207.64,218.68L83.5,217.14c-5.4-8.75-8.95-18.52-10.43-28.7l-1.07-7.32Z"/>
  <path d="M357.66,382.46c0,21.21-17.69,38.41-39.54,38.42s-39.56-17.21-39.56-38.38h0c0-21.21,17.71-38.4,39.57-38.4s39.57,17.19,39.57,38.4h0l-.04-.04Z"/>
  <path d="M261.19,139.67c-119.63,4.25-219.33,104.75-232.75,223l72.32,50.88c-9.35-59,45-163.05,162.26-159,89.4,3,151.75,65.67,159.86,154.76,13.33,146.46-98.23,208.51-173.78,215,169.77-.06,258.9-137.44,261.46-241.64,3.56-141.19-111-248-249.37-243Z"/>
  <path d="M237.09,360.04L172.21,51.25c-1.8-8.38-.65-10.42,3.25-18.05L192.46,0l-105.8,51.41,8.46,8.35c6.88,6.82,12.45,14.83,16.44,23.66l125.53,276.62Z"/>
</svg>