<?xml version="1.0" encoding="UTF-8"?>
<svg id="Layer_1" xmlns="http://www.w3.org/2000/svg" viewBox="0 0 586.87 659.92">
  <path d="M279.09,85.98c-127.22,0-230.34,103.13-230.34,230.34-.07,50.36,16.45,99.35,47,139.39-21.85-31.52-33.54-68.97-33.5-107.32,0-105.16,86.17-190.41,192.47-190.41s192.46,85.25,192.46,190.41-86.17,190.41-192.46,190.41c-28.08.03-55.84-6.05-81.33-17.83,32.66,16.92,68.92,25.74,105.7,25.7,127.22,0,230.34-103.13,230.34-230.34s-103.12-230.35-230.34-230.35Z"/>
  <circle cx="257.87" cy="325.42" r="37.5" transform="translate(-104.65 527.83) rotate(-80.78)"/>
  <path d="M442.62,50.81l-118.9,191.08c-11.63-13.95-27.75-18.19-39.63-20.53L405.18,30.36c1.47-3.16,1.31-4.31.48-7.34l-4-14.64,4.89-8.38c27.64,17.22,55.06,33.38,73.36,40.13l-26.26,4.44q-7.08,1.21-11.03,6.24Z"/>
  <path d="M146.88,19.24l20.93,18.18c4.58,4.7,11,13.65,12.62,20l48.66,182.88-8.39-216.33c-.12-4.74.69-9.45,2.39-13.88l2.7-7.17-78.91,16.32Z"/>
  <path d="M347.43,332.55l214.19-83c3.03-1.33,5.44-3.75,6.76-6.78l9.49-16.57c-1.69,15.66,1,58.19,9,102.38l-32.8-33c-1.88-1.95-4.62-2.82-7.28-2.3l-199.36,39.27Z"/>
  <path d="M0,659.92l172.09-265.5c11.65,12.05,24.41,22.89,39.37,31.31L0,659.92Z"/>
</svg>
