<?xml version="1.0" encoding="UTF-8"?>
<svg id="Layer_1" xmlns="http://www.w3.org/2000/svg" viewBox="0 0 750.5 696.5">
  <circle cx="384" cy="450.5" r="42.75"/>
  <path d="M279,340l77.5-51c-11.42-.85-21-3-35.5-3.5L143,0l144.5,306c-3.22,7.67-6.9,16.03-8.5,34Z"/>
  <path d="M401.5,310l57.5,63.5c3.14-11.06,2.22-21.45,1-31.5l224.5-213.5-254.5,181.5c-8.97-.6-19.25-1.09-28.5,0Z"/>
  <path d="M466,384l50.5,72.5c1.76-8.41.83-19.36,0-31.5l234-220-260,185c-8.14-2.25-16.34-4.61-24.5-6Z"/>
  <path d="M283,497.5c-5.89,9.67-5.72,17-3.5,23.5l-214.5,175.5,231.22-131.72c8.26-4.7,17.91-6.34,27.26-4.63l15.53,2.85-56.01-65.5Z"/>
  <path d="M0,598.5l225-179c-2.18-9.17-1.89-18.21,3-27l46,71-16.25-5.6c-7.16-2.47-15.05-1.69-21.59,2.14L0,598.5Z"/>
  <path d="M185,451c0-109.63,88.87-198.5,198.5-198.5s198.5,88.87,198.5,198.5c.05,36.92-10.25,73.11-29.73,104.47,35.15-43.32,54.3-97.43,54.23-153.22,0-134.58-109.13-243.75-243.75-243.75s-243.75,109.17-243.75,243.75c0,127.49,97.89,232,222.59,242.78-89.49-19.24-156.59-98.78-156.59-194.03Z"/>
</svg>
