<?xml version="1.0" encoding="UTF-8"?>
<svg id="Layer_1" xmlns="http://www.w3.org/2000/svg" viewBox="0 0 498.5 589.2">
  <path d="M257.75,15c-12.29,0-24.55.93-36.7,2.78,2-.06,4.08-.16,6.14-.16,109.25,0,197.81,88.56,197.81,197.81s-88.56,197.82-197.81,197.82S29.38,324.67,29.38,215.44c-.01-19.73,2.93-39.35,8.72-58.21-13.93,30.98-21.12,64.56-21.09,98.52-.01,132.92,107.74,240.75,240.74,240.75s240.75-107.83,240.75-240.75S390.75,15,257.75,15Z"/>
  <circle cx="338.75" cy="223.5" r="42"/>
  <path d="M238.16,589.2c39.2-7.27,78.97-11.02,118.84-11.2l-18.25-14.5c-5.2-4.86-9.62-10.49-13.11-16.69L0,0l270.27,559.15c1.48,3.05.45,6.72-2.4,8.56l-29.71,21.49Z"/>
  <path d="M455.5,489l-74.56,59.9c-1.58,1.28-3.9,1.04-5.18-.54-.33-.41-.57-.88-.7-1.39l-1.79-6.87c-1.04-4-.09-8.26,2.56-11.43l7.67-9.16L121,103.51l303.89,381.82c2.58,3.24,6.57,5.02,10.7,4.79l19.91-1.12Z"/>
</svg>