<?xml version="1.0" encoding="UTF-8"?>
<svg id="Layer_1" xmlns="http://www.w3.org/2000/svg" viewBox="0 0 667 693.31">
  <path d="M312,80.06c-13.97.02-27.92,1.25-41.68,3.67,7.71-.86,15.47-1.3,23.23-1.31,116,0,210,94,210,210s-94,210-210,210-210-94-210-210c-.06-37.76,10.12-74.84,29.45-107.28-27.42,40.02-42.07,87.41-42,135.92,0,133.1,107.9,241,241,241s241-107.9,241-241-107.9-241-241-241Z"/>
  <circle cx="177" cy="129.06" r="39.5"/>
  <path d="M323.5,275.56L37.64,481.48c-3.09,2.23-6.83,3.38-10.64,3.27l-27-.69c21.53,20.01,41.74,41.38,60.5,64l-.4-23.23c-.07-3.67,1.44-7.19,4.13-9.68l259.27-239.59Z"/>
  <path d="M359.81,198.12c24.65,18.35,44.75,38,65.52,61.56l-.33-25.75c-.05-3.58,1.4-7.01,4-9.47L667,0l-270,193.74c-2.95,2.12-6.5,3.25-10.13,3.24l-27.06,1.14Z"/>
  <path d="M636.94,591.69l-182.26-210.32c-2.65-3.05-4.11-6.96-4.12-11v-23.75c-17.73,17.92-39.63,35.56-63.75,53.06l26.56-.15c4.39-.02,8.63,1.57,11.91,4.48l211.66,187.68Z"/>
  <path d="M312.94,693.31l-.94-227.6c-.03-3.11,1.37-6.06,3.8-8l14.93-13.44c-26.75,3.34-54.36,3.16-82.69,0l14.76,18c3.47,3.9,5.84,8.65,6.86,13.77l43.28,217.27Z"/>
</svg>
