<?xml version="1.0" encoding="UTF-8"?>
<svg id="Layer_1" xmlns="http://www.w3.org/2000/svg" viewBox="0 0 567.87 557.04">
  <path d="M422.33,155.98c3.61,17.03,5.43,34.4,5.42,51.81,0,116.81-80,211.5-178.75,211.5s-178.75-94.69-178.75-211.5C70.25,105.05,132.17,19.46,214.25.32v-.32C93.05,17.78,0,122.15,0,248.29c0,138.62,112.38,251,251,251s251-112.38,251-251c.04-39.61-9.34-78.67-27.37-113.94-13.27,12.76-30.73,20.59-52.3,21.63Z"/>
  <circle cx="348.59" cy="55.67" r="42.38"/>
  <path d="M337.25,167.42c1.23,6.69,1.86,13.48,1.87,20.29,0,58.82-45.08,106.5-100.69,106.5s-100.68-47.73-100.68-106.5c0-49,31.35-90.19,74-102.59-76.63,15.48-126.2,90.16-110.72,166.79,15.48,76.63,90.16,126.2,166.79,110.72,76.63-15.48,126.2-90.16,110.72-166.79-1.97-9.75-4.96-19.26-8.92-28.38-9.22,3.01-19,4.93-32.37-.04Z"/>
  <path d="M567.87,557.04L274.25,173.79c3.19-16.71.63-28.37-.75-37.12l-77.25,63,15,2.76c4.86.89,9.33,3.25,12.8,6.76l343.82,347.85Z"/>
</svg>