<?xml version="1.0" encoding="UTF-8"?>
<svg id="Layer_1" xmlns="http://www.w3.org/2000/svg" viewBox="0 0 487.23 772.5">
  <circle cx="295.58" cy="412.38" r="42.38"/>
  <path d="M242.23,174.25c-122.76,0-224.42,89.64-242.23,206.59,21-76.94,102.74-134.34,200.48-134.34,113.63,0,205.75,77.57,205.75,173.25s-92.11,173.25-205.75,173.25c-94.85,0-174.66-54.06-198.47-127.57,22.42,111.38,121.44,195.32,240.22,195.32,135.31,0,245-108.91,245-243.25s-109.69-243.25-245-243.25Z"/>
  <path d="M118.73,772.5c35-11,70.4-15.52,106-15l-19.33-21.6c-3.98-4.45-6.25-10.18-6.39-16.15l-12.28-516.25C170.09,121.73,152.37,36.69,150.73,0l-.49,713.12c0,10.33-3.27,20.39-9.33,28.75l-22.18,30.63Z"/>
</svg>