<?xml version="1.0" encoding="UTF-8"?>
<svg id="Layer_1" xmlns="http://www.w3.org/2000/svg" viewBox="0 0 519.38 534.67">
  <path d="M264.75,32.25C124.12,32.25,10.13,145.07,10.13,284.25c0,125.8,93.15,230.05,214.91,248.93-81.85-20.16-143.29-104.96-143.29-206.51,0-116.6,80.92-211.13,180.75-211.13s180.75,94.48,180.75,211.13c0,104.32-64.79,190.91-149.93,208,127.17-14.1,226.06-120.81,226.06-250.42,0-139.18-114-252-254.63-252Z"/>
  <path d="M263.25,164.25c-78.7,0-142.5,63.3-142.5,141.42,0,64.71,43.85,119.23,103.66,136-37.86-15.77-64.66-54.4-64.66-99.67,0-59.23,45.83-107.25,102.38-107.25s102.38,48,102.38,107.25c0,47-28.92,86.86-69.1,101.34,63.2-14.47,110.34-70.61,110.34-137.67,0-78.12-63.8-141.42-142.5-141.42Z"/>
  <circle cx="257.25" cy="372" r="42.75"/>
  <path d="M391.5,421.5L93.75,24c2.45-6.68,3.1-15,3-24L0,96l46.6-18.78c2.21-.89,4.74-.36,6.41,1.33l338.49,342.95Z"/>
</svg>
