<?xml version="1.0" encoding="UTF-8"?>
<svg id="Layer_1" xmlns="http://www.w3.org/2000/svg" viewBox="0 0 673.81 670.5">
  <path d="M377.18,117c-26.66,0-53.15,4.35-78.4,12.9,14.99-3.58,30.35-5.39,45.77-5.4,108.94,0,197.25,88.31,197.25,197.25s-88.31,197.25-197.24,197.25-197.25-88.31-197.25-197.25c-.02-28.89,6.32-57.43,18.59-83.58-22.05,37.51-33.65,80.24-33.6,123.75,0,135.24,109.63,244.87,244.87,244.87s244.89-109.67,244.89-244.91-109.64-244.88-244.88-244.88Z"/>
  <circle cx="239.56" cy="175.5" r="42.75"/>
  <path d="M673.81,670.5c-32.92-22.83-75.63-41.54-120.75-59.25l-101.42-134.27c-3.13-4.13-8.29-6.19-13.4-5.34l-18.68,3.11,75-57.75-4.71,11.37c-2.64,6.39-1.57,13.72,2.79,19.09l181.17,223.04Z"/>
  <path d="M0,600.68c20.9-27.22,42.36-72.36,60.13-110.64l114-73.26c3.74-2.63,5.89-6.99,5.7-11.56l-.63-19.9s8,13.32,15.56,24.75c12.91,19.54,35.06,48.44,35.06,48.44l-16.37-8.62c-4.8-2.92-7.79-1.49-12.52,2L0,600.68Z"/>
  <path d="M607.81,0l-125,191.11c-2.04,3.11-2.29,7.07-.68,10.42l7.55,15.64-69.37-46.88,14,1.32c3.62.34,7.13-1.34,9.12-4.38l68.75-104.6c37.54-21.78,79-44.19,95.63-62.63Z"/>
</svg>
